<svg xmlns="http://www.w3.org/2000/svg" viewBox="0 0 358.74 108.58"><defs><style>.cls-1{fill:#101010;}</style></defs><g id="Layer_2" data-name="Layer 2"><g id="Layer_1-2" data-name="Layer 1"><path class="cls-1" d="M68.22,108.58h-41A27.8,27.8,0,0,1,0,80.33c0-.11,0-.21,0-.31L2.75,50.83a29.53,29.53,0,0,1,22.1-26.72A29.18,29.18,0,0,1,32.79,23H62.73a29.2,29.2,0,0,1,8,1.13A29.52,29.52,0,0,1,92.79,50.84L95.51,80c0,.1,0,.2,0,.31A27.8,27.8,0,0,1,68.3,108.58Zm-40.87-8.21H68.18A19.58,19.58,0,0,0,87.33,80.62L84.62,51.54a.49.49,0,0,1,0-.12A21.35,21.35,0,0,0,68.58,32l-.13,0a20.54,20.54,0,0,0-5.72-.82H32.8a20.54,20.54,0,0,0-5.72.82L27,32a21.35,21.35,0,0,0-16,19.37.49.49,0,0,1,0,.12L8.2,80.62A19.58,19.58,0,0,0,27.35,100.37Z"/><path class="cls-1" d="M64.92,38.29a4.68,4.68,0,0,0,9.35,0Zm4.67-12.61h4.68v-.09Zm-21.82-21-.09,4.68h.17Zm-21.83,21-4.68-.09v.09Zm-4.68,12.6a4.68,4.68,0,1,0,9.35,0Zm49.56,37a4.68,4.68,0,1,0-8.68-3.49ZM61,81.09l3,3.62h0Zm-26.52-.2-3,3.57,0,0Zm-1-9.28A4.68,4.68,0,1,0,24.69,75Zm.31-17a4.68,4.68,0,1,0-9.35,0Zm-9.35,6.24a4.68,4.68,0,0,0,9.35,0Zm46.77-6.24a4.68,4.68,0,1,0-9.35,0ZM61.8,60.82a4.68,4.68,0,0,0,9.35,0ZM74.27,38.29V25.68H64.92V38.29Zm0-12.7A26.11,26.11,0,0,0,47.68,0l.17,9.36A16.75,16.75,0,0,1,64.92,25.78ZM47.85,0A26.11,26.11,0,0,0,21.26,25.59l9.35.19A16.75,16.75,0,0,1,47.68,9.36ZM21.26,25.68v12.6h9.35V25.68ZM62.14,71.82A14.27,14.27,0,0,1,58,77.47l5.95,7.23a23.67,23.67,0,0,0,6.88-9.39ZM58,77.46a16.13,16.13,0,0,1-20.56-.15l-6,7.17a25.48,25.48,0,0,0,32.48.23Zm-20.54-.13a14.14,14.14,0,0,1-4-5.72L24.69,75a23.54,23.54,0,0,0,6.72,9.49ZM24.38,54.58v6.24h9.35V54.58Zm37.42,0v6.24h9.35V54.58Z"/><path class="cls-1" d="M147.21,84.82a24.58,24.58,0,0,1-12.92-3.27,21.64,21.64,0,0,1-8.35-9.15A30,30,0,0,1,123,58.83a30.2,30.2,0,0,1,2.92-13.64A21.89,21.89,0,0,1,134.29,36a24.32,24.32,0,0,1,12.92-3.31q9,0,14.69,4.42a19.83,19.83,0,0,1,7.2,12.5h-9.5a11.75,11.75,0,0,0-4.11-6.7,13.11,13.11,0,0,0-8.35-2.45,14.82,14.82,0,0,0-8.17,2.2A14.13,14.13,0,0,0,133.71,49a24.22,24.22,0,0,0-1.84,9.83,23.64,23.64,0,0,0,1.84,9.76A14.15,14.15,0,0,0,139,74.85a14.74,14.74,0,0,0,8.17,2.2,13.85,13.85,0,0,0,8.35-2.27,10.81,10.81,0,0,0,4.11-6.3h9.5a18.9,18.9,0,0,1-7.16,12Q156.21,84.82,147.21,84.82Z"/><path class="cls-1" d="M189.33,84.82a16.17,16.17,0,0,1-7.42-1.51,10.33,10.33,0,0,1-4.39-4,10.83,10.83,0,0,1-1.44-5.47,10.13,10.13,0,0,1,1.77-6,11.27,11.27,0,0,1,5.22-3.92,22.5,22.5,0,0,1,8.49-1.41h9.15a12.49,12.49,0,0,0-.8-4.78,5.63,5.63,0,0,0-2.44-2.85,8.63,8.63,0,0,0-4.25-.93,9.15,9.15,0,0,0-5,1.33,5.77,5.77,0,0,0-2.59,4.07h-8.5a12.94,12.94,0,0,1,2.59-6.66,14.28,14.28,0,0,1,5.73-4.32,19.41,19.41,0,0,1,7.81-1.55,19.72,19.72,0,0,1,8.71,1.76,12.67,12.67,0,0,1,5.51,5,15.47,15.47,0,0,1,1.91,7.89V84H202l-.86-5.83a11.4,11.4,0,0,1-1.84,2.66,11.93,11.93,0,0,1-2.55,2.13,12.62,12.62,0,0,1-3.28,1.4A15.45,15.45,0,0,1,189.33,84.82ZM191.27,78a8.72,8.72,0,0,0,3.71-.75,8.31,8.31,0,0,0,2.81-2.16,10.84,10.84,0,0,0,1.84-3.13,15.21,15.21,0,0,0,.86-3.68v-.14h-8a11.65,11.65,0,0,0-4.18.65,4.35,4.35,0,0,0-3.09,4.39,4.34,4.34,0,0,0,2.8,4.25A8.38,8.38,0,0,0,191.27,78Z"/><path class="cls-1" d="M218.56,84V47.67h7.71l.79,6.77a14.56,14.56,0,0,1,3.24-4.07,14.08,14.08,0,0,1,4.57-2.62,17,17,0,0,1,5.8-.94V56h-3a15.21,15.21,0,0,0-4.1.54,8.76,8.76,0,0,0-3.35,1.73,7.8,7.8,0,0,0-2.2,3.24,14.64,14.64,0,0,0-.79,5.15V84Z"/><path class="cls-1" d="M262.91,84a16.1,16.1,0,0,1-6.37-1.15A8.66,8.66,0,0,1,252.33,79a14.55,14.55,0,0,1-1.51-7.2V54.94h-6.2V47.67h6.2l1-9.57h7.64v9.57h9.86v7.27h-9.86V71.79c0,1.83.39,3.09,1.19,3.78a6,6,0,0,0,4,1.05h4.46V84Z"/><path class="cls-1" d="M282.14,41.91a5.47,5.47,0,0,1-3.93-1.47,4.85,4.85,0,0,1-1.55-3.64,4.7,4.7,0,0,1,1.55-3.64,6.2,6.2,0,0,1,7.85,0,4.7,4.7,0,0,1,1.55,3.64,4.85,4.85,0,0,1-1.55,3.64A5.46,5.46,0,0,1,282.14,41.91ZM277.82,84V47.67h8.64V84Z"/><path class="cls-1" d="M293.08,54.94V47.67h22v7.27Zm5.18,29V43.71A13.93,13.93,0,0,1,299.67,37a8.28,8.28,0,0,1,4.06-3.71,16.06,16.06,0,0,1,6.34-1.15h4.32v7.34h-3a4.9,4.9,0,0,0-3.42,1,4.41,4.41,0,0,0-1.05,3.35V84Z"/><path class="cls-1" d="M326.92,99.8l8.86-19.87h-2.16L319.14,47.67h9.44l10.8,24.63L349.6,47.67h9.14L336.06,99.8Z"/></g></g></svg>